<?xml version="1.0" standalone="no"?>
<!DOCTYPE svg PUBLIC "-//W3C//DTD SVG 20010904//EN"
 "http://www.w3.org/TR/2001/REC-SVG-20010904/DTD/svg10.dtd">
<svg version="1.0" xmlns="http://www.w3.org/2000/svg"
 width="256.000000pt" height="256.000000pt" viewBox="0 0 256.000000 256.000000"
 preserveAspectRatio="xMidYMid meet">
<metadata>
Created by potrace 1.11, written by Peter Selinger 2001-2013
</metadata>
<g transform="translate(0.000000,256.000000) scale(0.100000,-0.100000)"
fill="#000000" stroke="none">
<path d="M1593 2172 c-29 -59 -90 -179 -136 -267 -187 -358 -225 -434 -219
-439 3 -3 58 -6 121 -6 l116 0 169 338 c93 187 166 344 162 350 -7 12 -152
132 -158 131 -2 0 -26 -48 -55 -107z"/>
<path d="M1216 2208 c-51 -113 -91 -199 -166 -358 -130 -277 -150 -320 -217
-465 -36 -77 -67 -143 -70 -147 -2 -5 47 -8 109 -8 107 0 114 1 124 23 5 12
104 208 218 435 l209 412 36 0 c35 0 37 3 79 80 l42 80 -170 0 -170 0 -24 -52z"/>
<path d="M1648 1362 c-25 -31 -86 -106 -135 -166 -48 -59 -151 -185 -228 -280
-261 -318 -525 -645 -525 -649 0 -8 292 55 336 73 12 5 88 91 170 192 82 101
191 235 244 299 206 250 340 420 340 432 0 11 -139 157 -150 157 -3 0 -26 -26
-52 -58z"/>
<path d="M1260 1373 c69 -60 71 -61 167 -64 100 -4 113 2 165 74 l19 27 -197
0 -198 0 44 -37z"/>
<path d="M1180 1193 c0 -6 -36 -86 -80 -178 -44 -92 -80 -169 -80 -170 0 -2
-38 -83 -85 -181 -47 -97 -84 -178 -82 -180 3 -3 217 254 317 380 13 17 55 68
93 114 38 46 65 87 61 91 -5 4 -39 36 -76 71 -38 35 -68 58 -68 53z"/>
<path d="M740 1176 c0 -2 36 -25 80 -50 77 -45 81 -46 164 -46 l86 0 20 40
c11 21 20 44 20 50 0 6 -64 10 -185 10 -102 0 -185 -2 -185 -4z"/>
</g>
</svg>
